<svg width="33" height="33" viewBox="0 0 33 33" fill="none" xmlns="http://www.w3.org/2000/svg">
<path d="M29.614 17.0035L17.614 3.67017C17.1087 3.1075 16.138 3.1075 15.6327 3.67017L3.63268 17.0035C3.45996 17.195 3.34658 17.4325 3.30634 17.6872C3.2661 17.9419 3.30073 18.2028 3.40602 18.4382C3.61935 18.9195 4.09668 19.2288 4.62335 19.2288H7.29002V28.5622C7.29002 28.9158 7.43049 29.2549 7.68054 29.505C7.93059 29.755 8.26973 29.8955 8.62335 29.8955H12.6234C12.977 29.8955 13.3161 29.755 13.5662 29.505C13.8162 29.2549 13.9567 28.9158 13.9567 28.5622V23.2288H19.29V28.5622C19.29 28.9158 19.4305 29.2549 19.6805 29.505C19.9306 29.755 20.2697 29.8955 20.6234 29.8955H24.6234C24.977 29.8955 25.3161 29.755 25.5662 29.505C25.8162 29.2549 25.9567 28.9158 25.9567 28.5622V19.2288H28.6234C28.8816 19.2299 29.1345 19.1559 29.3514 19.0157C29.5683 18.8755 29.7396 18.6753 29.8447 18.4394C29.9497 18.2035 29.9838 17.9421 29.9428 17.6871C29.9019 17.4322 29.7876 17.1946 29.614 17.0035V17.0035Z" fill="#191919"/>
</svg>
