<svg width="33" height="33" viewBox="0 0 33 33" fill="none" xmlns="http://www.w3.org/2000/svg">
<path d="M27.9394 23.4155L22.5194 18.4875C22.2632 18.2546 21.9265 18.1304 21.5805 18.1411C21.2344 18.1518 20.9061 18.2966 20.6648 18.5448L17.4741 21.8261C16.7061 21.6795 15.1621 21.1981 13.5728 19.6128C11.9834 18.0221 11.5021 16.4741 11.3594 15.7115L14.6381 12.5195C14.8866 12.2783 15.0316 11.9499 15.0423 11.6037C15.053 11.2576 14.9286 10.9208 14.6954 10.6648L9.76876 5.24613C9.53548 4.98927 9.21126 4.83347 8.86496 4.81181C8.51866 4.79015 8.17755 4.90434 7.91409 5.13013L5.02076 7.61146C4.79024 7.84281 4.65265 8.15073 4.63409 8.47679C4.61409 8.81013 4.23276 16.7061 10.3554 22.8315C15.6968 28.1715 22.3874 28.5621 24.2301 28.5621C24.4994 28.5621 24.6648 28.5541 24.7088 28.5515C25.0348 28.5332 25.3425 28.395 25.5728 28.1635L28.0528 25.2688C28.2794 25.0062 28.3945 24.6653 28.3733 24.3191C28.3521 23.9728 28.1964 23.6485 27.9394 23.4155V23.4155Z" fill="#191919"/>
</svg>
