<svg width="25" height="25" viewBox="0 0 25 25" fill="none" xmlns="http://www.w3.org/2000/svg">
<path d="M20.6233 4.56213H4.62329C4.09286 4.56213 3.58415 4.77285 3.20908 5.14792C2.834 5.52299 2.62329 6.0317 2.62329 6.56213V18.5621C2.62329 19.0926 2.834 19.6013 3.20908 19.9763C3.58415 20.3514 4.09286 20.5621 4.62329 20.5621H20.6233C21.1537 20.5621 21.6624 20.3514 22.0375 19.9763C22.4126 19.6013 22.6233 19.0926 22.6233 18.5621V6.56213C22.6233 6.0317 22.4126 5.52299 22.0375 5.14792C21.6624 4.77285 21.1537 4.56213 20.6233 4.56213V4.56213ZM20.6233 9.26213L12.6233 14.5961L4.62329 9.26213V6.85913L12.6233 12.1921L20.6233 6.85913V9.26213Z" fill="#191919"/>
</svg>
