<svg width="32" height="32" viewBox="0 0 32 32" fill="none" xmlns="http://www.w3.org/2000/svg">
<path fill-rule="evenodd" clip-rule="evenodd" d="M16.0347 2.66663C8.68933 2.66663 2.736 8.61996 2.736 15.9653C2.736 21.84 6.54533 26.8253 11.8307 28.5853C12.496 28.7053 12.736 28.296 12.736 27.944C12.736 27.628 12.7253 26.7906 12.7213 25.6826C9.02133 26.4853 8.24 23.8986 8.24 23.8986C7.63733 22.3626 6.764 21.9533 6.764 21.9533C5.55733 21.128 6.856 21.1466 6.856 21.1466C8.192 21.24 8.892 22.5173 8.892 22.5173C10.0787 24.5493 12.0067 23.9626 12.7613 23.6226C12.8827 22.7626 13.2293 22.176 13.608 21.844C10.656 21.5093 7.552 20.368 7.552 15.2706C7.552 13.8213 8.07067 12.632 8.91733 11.704C8.78267 11.3666 8.32267 10.0133 9.04933 8.18396C9.04933 8.18396 10.1653 7.82529 12.7053 9.54529C13.7901 9.25019 14.9091 9.09955 16.0333 9.09729C17.1576 9.09912 18.2766 9.24976 19.3613 9.54529C21.9027 7.82396 23.0173 8.18396 23.0173 8.18396C23.744 10.0133 23.288 11.3666 23.1493 11.704C24.0027 12.632 24.5147 13.82 24.5147 15.2706C24.5147 20.3813 21.408 21.504 18.4453 21.8333C18.9187 22.244 19.3453 23.0546 19.3453 24.2946C19.3453 26.0733 19.3293 27.508 19.3293 27.944C19.3293 28.3 19.5667 28.7133 20.2453 28.5826C25.528 26.82 29.3333 21.8386 29.3333 15.9653C29.3333 8.61996 23.38 2.66663 16.0347 2.66663Z" fill="#191919"/>
</svg>
