<svg width="25" height="25" viewBox="0 0 25 25" fill="none" xmlns="http://www.w3.org/2000/svg">
<path d="M21.5704 8.86709C21.5603 8.10971 21.4185 7.35987 21.1514 6.65109C20.9197 6.05324 20.5659 5.51029 20.1125 5.05692C19.6592 4.60355 19.1162 4.24974 18.5184 4.01809C17.8187 3.75545 17.0795 3.61343 16.3324 3.59809C15.3704 3.55509 15.0654 3.54309 12.6234 3.54309C10.1814 3.54309 9.86836 3.54309 8.91336 3.59809C8.16652 3.61354 7.42771 3.75556 6.72836 4.01809C6.13042 4.24958 5.58738 4.60334 5.13399 5.05672C4.68061 5.51011 4.32685 6.05315 4.09536 6.65109C3.83219 7.35022 3.69048 8.0892 3.67636 8.83609C3.63336 9.79909 3.62036 10.1041 3.62036 12.5461C3.62036 14.9881 3.62036 15.3001 3.67636 16.2561C3.69136 17.0041 3.83236 17.7421 4.09536 18.4431C4.32724 19.0409 4.68126 19.5837 5.1348 20.0369C5.58834 20.4901 6.13143 20.8437 6.72936 21.0751C7.42679 21.3483 8.16573 21.5005 8.91436 21.5251C9.87736 21.5681 10.1824 21.5811 12.6244 21.5811C15.0664 21.5811 15.3794 21.5811 16.3344 21.5251C17.0815 21.5104 17.8207 21.3687 18.5204 21.1061C19.1181 20.8742 19.6609 20.5203 20.1142 20.0669C20.5675 19.6136 20.9214 19.0708 21.1534 18.4731C21.4164 17.7731 21.5574 17.0351 21.5724 16.2861C21.6154 15.3241 21.6284 15.0191 21.6284 12.5761C21.6264 10.1341 21.6264 9.82409 21.5704 8.86709V8.86709ZM12.6174 17.1641C10.0634 17.1641 7.99436 15.0951 7.99436 12.5411C7.99436 9.98709 10.0634 7.91809 12.6174 7.91809C13.8435 7.91809 15.0193 8.40516 15.8863 9.27214C16.7533 10.1391 17.2404 11.315 17.2404 12.5411C17.2404 13.7672 16.7533 14.9431 15.8863 15.81C15.0193 16.677 13.8435 17.1641 12.6174 17.1641V17.1641ZM17.4244 8.82509C17.2828 8.82522 17.1425 8.79743 17.0117 8.7433C16.8808 8.68917 16.7619 8.60977 16.6618 8.50965C16.5617 8.40952 16.4823 8.29063 16.4282 8.15978C16.374 8.02893 16.3462 7.88869 16.3464 7.74709C16.3464 7.60559 16.3742 7.46548 16.4284 7.33475C16.4825 7.20402 16.5619 7.08524 16.662 6.98518C16.762 6.88513 16.8808 6.80576 17.0115 6.75161C17.1422 6.69746 17.2824 6.66959 17.4239 6.66959C17.5654 6.66959 17.7055 6.69746 17.8362 6.75161C17.9669 6.80576 18.0857 6.88513 18.1858 6.98518C18.2858 7.08524 18.3652 7.20402 18.4193 7.33475C18.4735 7.46548 18.5014 7.60559 18.5014 7.74709C18.5014 8.34309 18.0194 8.82509 17.4244 8.82509Z" fill="#191919"/>
<path d="M12.6173 15.5441C14.2758 15.5441 15.6203 14.1996 15.6203 12.5411C15.6203 10.8826 14.2758 9.53809 12.6173 9.53809C10.9587 9.53809 9.61426 10.8826 9.61426 12.5411C9.61426 14.1996 10.9587 15.5441 12.6173 15.5441Z" fill="#191919"/>
</svg>
