<svg width="32" height="32" viewBox="0 0 32 32" fill="none" xmlns="http://www.w3.org/2000/svg">
<path d="M4 4H28V28H4V4ZM26.0333 22.276C25.8587 21.1813 25.1453 20.2613 23.0307 19.4027C22.2947 19.0573 21.4773 18.8187 21.232 18.264C21.1413 17.9333 21.128 17.7547 21.1867 17.5587C21.3373 16.9133 22.1027 16.72 22.7027 16.8987C23.0933 17.0187 23.4533 17.3187 23.6787 17.8C24.712 17.124 24.712 17.124 25.4333 16.6747C25.1627 16.256 25.028 16.0733 24.848 15.8933C24.2173 15.1893 23.3773 14.8293 22.0133 14.86L21.3093 14.9493C20.6333 15.1147 19.988 15.476 19.5987 15.9547C18.4587 17.2453 18.788 19.4947 20.168 20.4267C21.532 21.4467 23.5293 21.6707 23.784 22.6307C24.024 23.8013 22.9147 24.176 21.8173 24.0413C21.008 23.86 20.5573 23.456 20.0627 22.7053L18.2333 23.756C18.4427 24.2347 18.6827 24.4453 19.0427 24.8653C20.7827 26.62 25.1333 26.5307 25.9133 23.86C25.9413 23.7707 26.1533 23.156 25.988 22.2107L26.0333 22.276ZM17.0507 15.0307H14.8027C14.8027 16.968 14.7933 18.8947 14.7933 20.836C14.7933 22.068 14.856 23.1987 14.6547 23.5467C14.3253 24.236 13.4733 24.148 13.088 24.0253C12.692 23.8307 12.4907 23.56 12.2573 23.1707C12.1947 23.0667 12.148 22.976 12.1307 22.976L10.3067 24.1013C10.612 24.732 11.0573 25.2733 11.632 25.6173C12.4867 26.128 13.6347 26.2933 14.8373 26.024C15.6213 25.7973 16.2973 25.332 16.648 24.612C17.16 23.6827 17.0507 22.5413 17.0467 21.2667C17.0573 19.212 17.0467 17.156 17.0467 15.0867L17.0507 15.0307Z" fill="#191919"/>
</svg>
