<svg width="25" height="25" viewBox="0 0 25 25" fill="none" xmlns="http://www.w3.org/2000/svg">
<path d="M20.6233 3.56213H4.62329C4.35807 3.56213 4.10372 3.66749 3.91618 3.85503C3.72865 4.04256 3.62329 4.29692 3.62329 4.56213V20.5621C3.62329 20.8274 3.72865 21.0817 3.91618 21.2692C4.10372 21.4568 4.35807 21.5621 4.62329 21.5621H20.6233C20.8885 21.5621 21.1429 21.4568 21.3304 21.2692C21.5179 21.0817 21.6233 20.8274 21.6233 20.5621V4.56213C21.6233 4.29692 21.5179 4.04256 21.3304 3.85503C21.1429 3.66749 20.8885 3.56213 20.6233 3.56213V3.56213ZM8.96229 18.8991H6.29029V10.3091H8.96229V18.8991ZM7.62629 9.13613C7.21574 9.13613 6.822 8.97304 6.53169 8.68274C6.24138 8.39243 6.07829 7.99869 6.07829 7.58813C6.07829 7.17758 6.24138 6.78384 6.53169 6.49353C6.822 6.20323 7.21574 6.04013 7.62629 6.04013C8.03685 6.04013 8.43059 6.20323 8.72089 6.49353C9.0112 6.78384 9.17429 7.17758 9.17429 7.58813C9.17429 7.99869 9.0112 8.39243 8.72089 8.68274C8.43059 8.97304 8.03685 9.13613 7.62629 9.13613V9.13613ZM18.9613 18.8991H16.2923V14.7221C16.2923 13.7261 16.2743 12.4451 14.9043 12.4451C13.5143 12.4451 13.3033 13.5311 13.3033 14.6521V18.9001H10.6363V10.3101H13.1963V11.4841H13.2333C13.5883 10.8091 14.4603 10.0971 15.7573 10.0971C18.4613 10.0971 18.9603 11.8751 18.9603 14.1891V18.8991H18.9613Z" fill="#191919"/>
</svg>
