<svg width="32" height="32" viewBox="0 0 32 32" fill="none" xmlns="http://www.w3.org/2000/svg">
<path d="M16 29.3133C15.6333 29.3133 15.2907 29.2147 14.9707 29.044L11.7187 27.1133C11.232 26.8427 11.476 26.744 11.6227 26.6947C12.284 26.4747 12.4067 26.4267 13.0907 26.0373C13.1653 25.988 13.2627 26.0107 13.3373 26.06L15.8307 27.5533C15.9293 27.6013 16.052 27.6013 16.1253 27.5533L25.884 21.904C25.9827 21.856 26.0307 21.7573 26.0307 21.6347V10.3573C26.0307 10.236 25.9827 10.1373 25.884 10.0893L16.1253 4.46401C16.028 4.41468 15.9053 4.41468 15.8307 4.46401L6.06933 10.088C5.972 10.136 5.92266 10.26 5.92266 10.356V21.632C5.92266 21.7293 5.972 21.8533 6.06933 21.9013L8.736 23.444C10.1787 24.1747 11.0853 23.3173 11.0853 22.464V11.336C11.0853 11.1893 11.2067 11.0413 11.3787 11.0413H12.6267C12.7707 11.0413 12.92 11.164 12.92 11.336V22.4653C12.92 24.3973 11.8693 25.524 10.0347 25.524C9.472 25.524 9.032 25.524 7.784 24.9107L5.21733 23.4453C4.90461 23.2635 4.64508 23.0029 4.46468 22.6893C4.28428 22.3758 4.18934 22.0204 4.18933 21.6587V10.3813C4.18933 9.64801 4.58 8.96268 5.21733 8.59601L14.972 2.94668C15.2887 2.77732 15.6422 2.68872 16.0013 2.68872C16.3604 2.68872 16.714 2.77732 17.0307 2.94668L26.7867 8.59601C27.4253 8.96134 27.8147 9.64801 27.8147 10.3813V21.6587C27.8147 22.3907 27.424 23.076 26.7867 23.4453L17.0307 29.0933C16.7093 29.24 16.3427 29.3133 16 29.3133ZM19.008 21.5587C14.728 21.5587 13.848 19.6013 13.848 17.94C13.848 17.7933 13.9707 17.6453 14.1413 17.6453H15.4133C15.56 17.6453 15.6813 17.7427 15.6813 17.8907C15.8773 19.1853 16.4387 19.8227 19.0333 19.8227C21.0867 19.8227 21.9693 19.356 21.9693 18.256C21.9693 17.62 21.7227 17.156 18.52 16.8387C15.8547 16.572 14.192 15.9813 14.192 13.8547C14.192 11.8747 15.8547 10.7 18.644 10.7C21.7733 10.7 23.3147 11.7787 23.5093 14.124C23.507 14.2032 23.481 14.2798 23.4347 14.344C23.3853 14.392 23.3133 14.4413 23.24 14.4413H21.9693C21.9065 14.44 21.8459 14.4178 21.7972 14.3782C21.7484 14.3386 21.7142 14.2839 21.7 14.2227C21.4053 12.8733 20.648 12.436 18.644 12.436C16.392 12.436 16.1227 13.2187 16.1227 13.8053C16.1227 14.5133 16.4387 14.7333 19.4747 15.1253C22.4827 15.516 23.9013 16.0787 23.9013 18.184C23.8747 20.3373 22.116 21.5587 19.008 21.5587Z" fill="#191919"/>
</svg>
