<svg width="32" height="32" viewBox="0 0 32 32" fill="none" xmlns="http://www.w3.org/2000/svg">
<path d="M16 2.66663C23.3627 2.66663 29.3333 8.63729 29.3333 16C29.3333 23.3626 23.3627 29.3333 16 29.3333C8.63733 29.3333 2.66667 23.3626 2.66667 16C2.66667 8.63729 8.63733 2.66663 16 2.66663ZM13.3507 20.4426C13.5453 21.1586 13.524 21.828 13.3227 22.4333L13.2507 22.6333C13.0822 23.0365 12.8444 23.4069 12.548 23.728C11.772 24.572 10.6893 24.8906 10.2253 24.6226C9.72534 24.3306 9.97467 23.14 10.8747 22.1893C11.8427 21.1693 13.2293 20.512 13.2293 20.512V20.5093L13.3507 20.4426ZM24.3613 8.37463C23.7587 6.00529 19.832 5.22529 16.1147 6.54663C13.9067 7.33196 11.5107 8.56663 9.79067 10.1773C7.74267 12.0893 7.41734 13.756 7.55067 14.452C8.024 16.9093 11.392 18.516 12.7773 19.708V19.7146C12.368 19.9133 9.38 21.4133 8.68133 22.9653C7.93067 24.5986 8.79867 25.7666 9.36533 25.9146C11.116 26.3986 12.9147 25.5146 13.8827 24.0826C14.8147 22.6813 14.7333 20.8826 14.332 19.9986C14.8827 19.8493 15.5307 19.7826 16.364 19.884C18.6987 20.1493 19.1653 21.6173 19.0627 22.2173C18.964 22.816 18.4813 23.1653 18.3147 23.2653C18.1467 23.3666 18.0973 23.4 18.1133 23.4666C18.1307 23.5653 18.2147 23.5653 18.3467 23.5506C18.5307 23.5173 19.5653 23.0506 19.6147 21.9146C19.664 20.4826 18.2973 18.884 15.864 18.9146C14.864 18.9333 14.2293 19.016 13.78 19.2C13.7497 19.153 13.7097 19.1129 13.6627 19.0826C12.1627 17.4653 9.37867 16.332 9.496 14.1826C9.52934 13.3986 9.812 11.3333 14.8293 8.83329C18.9467 6.78263 22.2307 7.35063 22.7987 8.59996C23.612 10.3813 21.0467 13.7 16.764 14.1826C15.1307 14.3666 14.2813 13.7333 14.0627 13.4986C13.8307 13.248 13.7987 13.232 13.7147 13.284C13.58 13.3506 13.664 13.5666 13.7147 13.7013C13.848 14.0333 14.364 14.6186 15.2653 14.9173C16.048 15.168 17.964 15.316 20.2653 14.4173C22.848 13.4186 24.864 10.6333 24.2813 8.29996L24.3613 8.37463Z" fill="#191919"/>
</svg>
